<svg width="72" height="21" viewBox="0 0 72 21" fill="none" xmlns="http://www.w3.org/2000/svg">
    <path
        d="M7.34659 20H0.643466V1.09091H7.40199C9.30398 1.09091 10.9413 1.46946 12.3139 2.22656C13.6866 2.97751 14.7422 4.05776 15.4808 5.46733C16.2256 6.87689 16.598 8.56345 16.598 10.527C16.598 12.4967 16.2256 14.1894 15.4808 15.6051C14.7422 17.0208 13.6804 18.1072 12.2955 18.8643C10.9167 19.6214 9.26705 20 7.34659 20ZM4.64134 16.5746H7.1804C8.36222 16.5746 9.3563 16.3653 10.1626 15.9467C10.9751 15.522 11.5845 14.8665 11.9908 13.9801C12.4032 13.0876 12.6094 11.9366 12.6094 10.527C12.6094 9.12973 12.4032 7.98793 11.9908 7.10156C11.5845 6.2152 10.9782 5.56274 10.1719 5.14418C9.36553 4.72562 8.37145 4.51634 7.18963 4.51634H4.64134V16.5746ZM19.5595 20V1.09091H27.0197C28.4477 1.09091 29.6665 1.34635 30.676 1.85724C31.6916 2.36198 32.4641 3.07907 32.9934 4.00852C33.5289 4.93182 33.7967 6.01823 33.7967 7.26776C33.7967 8.52344 33.5259 9.60369 32.9842 10.5085C32.4425 11.4072 31.6577 12.0966 30.6298 12.5767C29.608 13.0568 28.3708 13.2969 26.9181 13.2969H21.9231V10.0838H26.2718C27.0351 10.0838 27.6691 9.97917 28.1738 9.76989C28.6786 9.56061 29.054 9.24669 29.3002 8.82812C29.5526 8.40956 29.6788 7.88944 29.6788 7.26776C29.6788 6.63991 29.5526 6.11056 29.3002 5.67969C29.054 5.24882 28.6755 4.92258 28.1646 4.70099C27.6599 4.47325 27.0228 4.35938 26.2534 4.35938H23.5574V20H19.5595ZM29.7711 11.3949L34.4707 20H30.0574L25.4593 11.3949H29.7711ZM53.9984 10.5455C53.9984 12.6075 53.6075 14.3617 52.8258 15.8082C52.0502 17.2547 50.9915 18.3596 49.6497 19.1229C48.314 19.88 46.8121 20.2585 45.144 20.2585C43.4636 20.2585 41.9556 19.8769 40.6199 19.1136C39.2842 18.3504 38.2285 17.2455 37.4529 15.799C36.6774 14.3525 36.2896 12.6013 36.2896 10.5455C36.2896 8.48343 36.6774 6.72917 37.4529 5.28267C38.2285 3.83617 39.2842 2.73437 40.6199 1.97727C41.9556 1.21401 43.4636 0.832386 45.144 0.832386C46.8121 0.832386 48.314 1.21401 49.6497 1.97727C50.9915 2.73437 52.0502 3.83617 52.8258 5.28267C53.6075 6.72917 53.9984 8.48343 53.9984 10.5455ZM49.9451 10.5455C49.9451 9.20975 49.7451 8.08333 49.345 7.16619C48.9511 6.24905 48.394 5.5535 47.6738 5.07955C46.9537 4.60559 46.1104 4.36861 45.144 4.36861C44.1776 4.36861 43.3343 4.60559 42.6142 5.07955C41.894 5.5535 41.3339 6.24905 40.9338 7.16619C40.5398 8.08333 40.3429 9.20975 40.3429 10.5455C40.3429 11.8812 40.5398 13.0076 40.9338 13.9247C41.3339 14.8419 41.894 15.5374 42.6142 16.0114C43.3343 16.4853 44.1776 16.7223 45.144 16.7223C46.1104 16.7223 46.9537 16.4853 47.6738 16.0114C48.394 15.5374 48.9511 14.8419 49.345 13.9247C49.7451 13.0076 49.9451 11.8812 49.9451 10.5455ZM56.9599 20V1.09091H64.4201C65.8543 1.09091 67.0761 1.36482 68.0856 1.91264C69.0951 2.45431 69.8645 3.20833 70.3938 4.17471C70.9293 5.13494 71.1971 6.2429 71.1971 7.49858C71.1971 8.75426 70.9263 9.86222 70.3846 10.8224C69.8429 11.7827 69.0581 12.5305 68.0302 13.0661C67.0084 13.6016 65.7712 13.8693 64.3185 13.8693H59.5636V10.6655H63.6722C64.4416 10.6655 65.0756 10.5331 65.5742 10.2685C66.079 9.99763 66.4544 9.62524 66.7006 9.15128C66.953 8.67116 67.0792 8.12026 67.0792 7.49858C67.0792 6.87074 66.953 6.32292 66.7006 5.85511C66.4544 5.38115 66.079 5.01491 65.5742 4.75639C65.0695 4.49171 64.4293 4.35938 63.6538 4.35938H60.9577V20H56.9599Z"
        fill="black" />
</svg>
    